<?xml version="1.0" encoding="utf-8"?>
<!-- Generator: Adobe Illustrator 27.3.1, SVG Export Plug-In . SVG Version: 6.00 Build 0)  -->
<svg version="1.2" baseProfile="tiny" id="g-cu_tuition-Artboard_13-300-lines-img" xmlns="http://www.w3.org/2000/svg" xmlns:xlink="http://www.w3.org/1999/xlink"
	 x="0px" y="0px" viewBox="0 0 300 1094.653" overflow="visible" xml:space="preserve">
<g>
	<rect x="29.447" y="296.915" fill="#EBEBEB" width="254.766" height="677.603"/>
	
		<line fill="none" stroke="#FFFFFF" stroke-width="0.53" stroke-linejoin="round" stroke-miterlimit="10" x1="29.447" y1="958.17" x2="284.213" y2="958.17"/>
	
		<line fill="none" stroke="#FFFFFF" stroke-width="0.53" stroke-linejoin="round" stroke-miterlimit="10" x1="29.447" y1="861.779" x2="284.213" y2="861.779"/>
	
		<line fill="none" stroke="#FFFFFF" stroke-width="0.53" stroke-linejoin="round" stroke-miterlimit="10" x1="29.447" y1="765.376" x2="284.213" y2="765.376"/>
	
		<line fill="none" stroke="#FFFFFF" stroke-width="0.53" stroke-linejoin="round" stroke-miterlimit="10" x1="29.447" y1="668.973" x2="284.213" y2="668.973"/>
	
		<line fill="none" stroke="#FFFFFF" stroke-width="0.53" stroke-linejoin="round" stroke-miterlimit="10" x1="29.447" y1="572.57" x2="284.213" y2="572.57"/>
	
		<line fill="none" stroke="#FFFFFF" stroke-width="0.53" stroke-linejoin="round" stroke-miterlimit="10" x1="29.447" y1="476.167" x2="284.213" y2="476.167"/>
	
		<line fill="none" stroke="#FFFFFF" stroke-width="0.53" stroke-linejoin="round" stroke-miterlimit="10" x1="29.447" y1="379.764" x2="284.213" y2="379.764"/>
	
		<line fill="none" stroke="#FFFFFF" stroke-width="1.07" stroke-linejoin="round" stroke-miterlimit="10" x1="29.447" y1="909.968" x2="284.213" y2="909.968"/>
	
		<line fill="none" stroke="#FFFFFF" stroke-width="1.07" stroke-linejoin="round" stroke-miterlimit="10" x1="29.447" y1="813.578" x2="284.213" y2="813.578"/>
	
		<line fill="none" stroke="#FFFFFF" stroke-width="1.07" stroke-linejoin="round" stroke-miterlimit="10" x1="29.447" y1="717.175" x2="284.213" y2="717.175"/>
	
		<line fill="none" stroke="#FFFFFF" stroke-width="1.07" stroke-linejoin="round" stroke-miterlimit="10" x1="29.447" y1="620.772" x2="284.213" y2="620.772"/>
	
		<line fill="none" stroke="#FFFFFF" stroke-width="1.07" stroke-linejoin="round" stroke-miterlimit="10" x1="29.447" y1="524.368" x2="284.213" y2="524.368"/>
	
		<line fill="none" stroke="#FFFFFF" stroke-width="1.07" stroke-linejoin="round" stroke-miterlimit="10" x1="29.447" y1="427.965" x2="284.213" y2="427.965"/>
	
		<line fill="none" stroke="#FFFFFF" stroke-width="1.07" stroke-linejoin="round" stroke-miterlimit="10" x1="29.447" y1="331.575" x2="284.213" y2="331.575"/>
	
		<line fill="none" stroke="#FFFFFF" stroke-width="1.07" stroke-linejoin="round" stroke-miterlimit="10" x1="43.096" y1="974.518" x2="43.096" y2="296.915"/>
	
		<line fill="none" stroke="#FFFFFF" stroke-width="1.07" stroke-linejoin="round" stroke-miterlimit="10" x1="65.845" y1="974.518" x2="65.845" y2="296.915"/>
	
		<line fill="none" stroke="#FFFFFF" stroke-width="1.07" stroke-linejoin="round" stroke-miterlimit="10" x1="88.589" y1="974.518" x2="88.589" y2="296.915"/>
	
		<line fill="none" stroke="#FFFFFF" stroke-width="1.07" stroke-linejoin="round" stroke-miterlimit="10" x1="111.337" y1="974.518" x2="111.337" y2="296.915"/>
	
		<line fill="none" stroke="#FFFFFF" stroke-width="1.07" stroke-linejoin="round" stroke-miterlimit="10" x1="134.086" y1="974.518" x2="134.086" y2="296.915"/>
	
		<line fill="none" stroke="#FFFFFF" stroke-width="1.07" stroke-linejoin="round" stroke-miterlimit="10" x1="156.83" y1="974.518" x2="156.83" y2="296.915"/>
	
		<line fill="none" stroke="#FFFFFF" stroke-width="1.07" stroke-linejoin="round" stroke-miterlimit="10" x1="179.578" y1="974.518" x2="179.578" y2="296.915"/>
	
		<line fill="none" stroke="#FFFFFF" stroke-width="1.07" stroke-linejoin="round" stroke-miterlimit="10" x1="202.327" y1="974.518" x2="202.327" y2="296.915"/>
	
		<line fill="none" stroke="#FFFFFF" stroke-width="1.07" stroke-linejoin="round" stroke-miterlimit="10" x1="225.071" y1="974.518" x2="225.071" y2="296.915"/>
	
		<line fill="none" stroke="#FFFFFF" stroke-width="1.07" stroke-linejoin="round" stroke-miterlimit="10" x1="247.82" y1="974.518" x2="247.82" y2="296.915"/>
	
		<line fill="none" stroke="#FFFFFF" stroke-width="1.07" stroke-linejoin="round" stroke-miterlimit="10" x1="270.568" y1="974.518" x2="270.568" y2="296.915"/>
	<polyline fill="none" stroke="#8A5D3B" stroke-width="2" stroke-linejoin="round" stroke-miterlimit="10" points="43.096,866.939 
		65.845,824.598 88.589,774.122 111.337,725.544 134.086,670.143 156.83,616.418 179.578,548.736 202.327,495.908 225.071,453.996 
		247.82,411.461 270.568,336.812 	"/>
	<polyline fill="none" stroke="#96C1E8" stroke-width="2" stroke-linejoin="round" stroke-miterlimit="10" points="43.096,792.057 
		65.845,747.247 88.589,700.592 111.337,653.547 134.086,604.852 156.83,554.337 179.578,498.533 202.327,549.112 225.071,447.641 
		247.82,395.58 270.568,327.715 	"/>
	<polyline fill="none" stroke="#D2113C" stroke-width="2" stroke-linejoin="round" stroke-miterlimit="10" points="43.096,832.136 
		65.845,794.981 88.589,759.71 111.337,719.046 134.086,674.119 156.83,620.694 179.578,572.219 202.327,521.249 225.071,476.921 
		247.82,422.416 270.568,339.892 	"/>
	<polyline fill="none" stroke="#00662D" stroke-width="2" stroke-linejoin="round" stroke-miterlimit="10" points="43.096,809.718 
		65.845,776.033 88.589,741.386 111.337,694.536 134.086,657.225 156.83,605.527 179.578,551.79 202.327,495.843 225.071,466.355 
		247.82,422.104 270.568,345.065 	"/>
	<polyline fill="none" stroke="#90278E" stroke-width="2" stroke-linejoin="round" stroke-miterlimit="10" points="43.096,882.846 
		65.845,840.427 88.589,800.868 111.337,755.253 134.086,705.426 156.83,667.427 179.578,628.348 202.327,575.325 225.071,533.466 
		247.82,490.384 270.568,438.57 	"/>
	<polyline fill="none" stroke="#F58426" stroke-width="2" stroke-linejoin="round" stroke-miterlimit="10" points="43.096,943.718 
		65.845,901.495 88.589,859.648 111.337,811.836 134.086,760.555 156.83,701.554 179.578,639.668 202.327,587.801 225.071,540.977 
		247.82,504.316 270.568,445.51 	"/>
	<polyline fill="none" stroke="#004785" stroke-width="2" stroke-linejoin="round" stroke-miterlimit="10" points="43.096,845.808 
		65.845,801.388 88.589,755.499 111.337,708.117 134.086,658.291 156.83,608.932 179.578,556.143 202.327,529.749 225.071,459.48 
		247.82,402.13 270.568,339.282 	"/>
	<polyline fill="none" stroke="#005BFF" stroke-width="2" stroke-linejoin="round" stroke-miterlimit="10" points="43.096,861.779 
		65.845,817.425 88.589,771.159 111.337,723.92 134.086,680.539 156.83,631.766 179.578,580.289 202.327,526.305 225.071,471.345 
		247.82,414.476 270.568,353.161 	"/>
	<rect x="115.713" y="131.583" fill="#F2F2F2" width="26.645" height="22.071"/>
	
		<line fill="none" stroke="#8A5D3B" stroke-width="2" stroke-linejoin="round" stroke-miterlimit="10" x1="118.365" y1="142.619" x2="139.689" y2="142.619"/>
	<rect x="20.058" y="131.583" fill="#F2F2F2" width="26.645" height="22.071"/>
	
		<line fill="none" stroke="#96C1E8" stroke-width="2" stroke-linejoin="round" stroke-miterlimit="10" x1="22.71" y1="142.619" x2="44.035" y2="142.619"/>
	<rect x="19.928" y="188.292" fill="#F2F2F2" width="26.645" height="22.071"/>
	
		<line fill="none" stroke="#00662D" stroke-width="2" stroke-linejoin="round" stroke-miterlimit="10" x1="22.58" y1="199.327" x2="43.905" y2="199.327"/>
	<rect x="192.728" y="131.54" fill="#F2F2F2" width="26.645" height="22.071"/>
	
		<line fill="none" stroke="#B0113C" stroke-width="2" stroke-linejoin="round" stroke-miterlimit="10" x1="195.38" y1="142.576" x2="216.705" y2="142.576"/>
	<rect x="19.793" y="161.583" fill="#F2F2F2" width="26.645" height="20.071"/>
	
		<line fill="none" stroke="#F58426" stroke-width="2" stroke-linejoin="round" stroke-miterlimit="10" x1="22.445" y1="170.619" x2="43.769" y2="170.619"/>
	<rect x="115.457" y="161.583" fill="#F2F2F2" width="26.645" height="20.071"/>
	
		<line fill="none" stroke="#004785" stroke-width="2" stroke-linejoin="round" stroke-miterlimit="10" x1="118.109" y1="170.619" x2="139.434" y2="170.619"/>
	<rect x="192.491" y="161.583" fill="#F2F2F2" width="26.645" height="20.071"/>
	
		<line fill="none" stroke="#005BFF" stroke-width="2" stroke-linejoin="round" stroke-miterlimit="10" x1="195.143" y1="170.619" x2="216.468" y2="170.619"/>
	
		<line fill="none" stroke="#333333" stroke-width="1.07" stroke-linejoin="round" stroke-miterlimit="10" x1="28.244" y1="909.968" x2="29.447" y2="909.968"/>
	
		<line fill="none" stroke="#333333" stroke-width="1.07" stroke-linejoin="round" stroke-miterlimit="10" x1="28.244" y1="813.578" x2="29.447" y2="813.578"/>
	
		<line fill="none" stroke="#333333" stroke-width="1.07" stroke-linejoin="round" stroke-miterlimit="10" x1="28.244" y1="717.175" x2="29.447" y2="717.175"/>
	
		<line fill="none" stroke="#333333" stroke-width="1.07" stroke-linejoin="round" stroke-miterlimit="10" x1="28.244" y1="620.772" x2="29.447" y2="620.772"/>
	
		<line fill="none" stroke="#333333" stroke-width="1.07" stroke-linejoin="round" stroke-miterlimit="10" x1="28.244" y1="524.368" x2="29.447" y2="524.368"/>
	
		<line fill="none" stroke="#333333" stroke-width="1.07" stroke-linejoin="round" stroke-miterlimit="10" x1="28.244" y1="427.965" x2="29.447" y2="427.965"/>
	
		<line fill="none" stroke="#333333" stroke-width="1.07" stroke-linejoin="round" stroke-miterlimit="10" x1="28.244" y1="331.575" x2="29.447" y2="331.575"/>
	
		<line fill="none" stroke="#333333" stroke-width="1.07" stroke-linejoin="round" stroke-miterlimit="10" x1="43.096" y1="978.079" x2="43.096" y2="974.518"/>
	
		<line fill="none" stroke="#333333" stroke-width="1.07" stroke-linejoin="round" stroke-miterlimit="10" x1="65.845" y1="978.079" x2="65.845" y2="974.518"/>
	
		<line fill="none" stroke="#333333" stroke-width="1.07" stroke-linejoin="round" stroke-miterlimit="10" x1="111.337" y1="978.079" x2="111.337" y2="974.518"/>
	
		<line fill="none" stroke="#333333" stroke-width="1.07" stroke-linejoin="round" stroke-miterlimit="10" x1="134.086" y1="978.079" x2="134.086" y2="974.518"/>
	
		<line fill="none" stroke="#333333" stroke-width="1.07" stroke-linejoin="round" stroke-miterlimit="10" x1="156.83" y1="978.079" x2="156.83" y2="974.518"/>
	
		<line fill="none" stroke="#333333" stroke-width="1.07" stroke-linejoin="round" stroke-miterlimit="10" x1="179.578" y1="978.079" x2="179.578" y2="974.518"/>
	
		<line fill="none" stroke="#333333" stroke-width="1.07" stroke-linejoin="round" stroke-miterlimit="10" x1="202.327" y1="978.079" x2="202.327" y2="974.518"/>
	
		<line fill="none" stroke="#333333" stroke-width="1.07" stroke-linejoin="round" stroke-miterlimit="10" x1="225.071" y1="978.079" x2="225.071" y2="974.518"/>
	
		<line fill="none" stroke="#333333" stroke-width="1.07" stroke-linejoin="round" stroke-miterlimit="10" x1="247.82" y1="978.079" x2="247.82" y2="974.518"/>
	
		<line fill="none" stroke="#333333" stroke-width="1.07" stroke-linejoin="round" stroke-miterlimit="10" x1="270.568" y1="978.079" x2="270.568" y2="974.518"/>
	
		<line fill="none" stroke="#333333" stroke-width="1.07" stroke-linejoin="round" stroke-miterlimit="10" x1="88.526" y1="978.092" x2="88.526" y2="974.531"/>
	<polygon fill="none" points="48.904,980.411 49.598,1036.857 38.229,1036.971 37.535,980.526 	"/>
	<text transform="matrix(0 1.1659 -1 0 39.198 980.5092)" font-family="'Roboto-Regular'" font-size="12.1572px">2013-14</text>
	
		<rect x="59.35" y="979.975" transform="matrix(0.9999 -0.0111 0.0111 0.9999 -11.1775 0.7801)" fill="none" width="10.793" height="56.327"/>
	<text transform="matrix(0 1.1659 -1 0 60.0554 980.0228)" font-family="'Roboto-Regular'" font-size="12.1572px">2014-15</text>
	<polygon fill="none" points="94.197,980.177 94.921,1036.516 83.015,1036.623 82.29,980.284 	"/>
	<text transform="matrix(0 1.1659 -1 0 84.5212 980.264)" font-family="'Roboto-Regular'" font-size="12.1572px">2015-16</text>
	<polygon fill="none" points="116.486,980.507 117.368,1040.749 103.811,1040.856 102.929,980.614 	"/>
	<text transform="matrix(0 1.1659 -1 0 106.9685 980.5824)" font-family="'Roboto-Regular'" font-size="12.1572px">2016-17</text>
	<polygon fill="none" points="138.846,980.58 139.598,1035.147 126.828,1035.254 126.075,980.687 	"/>
	<text transform="matrix(0 1.1659 -1 0 129.198 980.6615)" font-family="'Roboto-Regular'" font-size="12.1572px">2017-18</text>
	<polygon fill="none" points="160.998,981.264 161.871,1037.872 147.59,1037.979 146.717,981.371 	"/>
	<text transform="matrix(0 1.1659 -1 0 151.4705 981.3353)" font-family="'Roboto-Regular'" font-size="12.1572px">2018-19</text>
	<polygon fill="none" points="184.393,981.436 185.251,1036.472 170.815,1036.579 169.957,981.543 	"/>
	<text transform="matrix(0 1.1659 -1 0 174.8503 981.5062)" font-family="'Roboto-Regular'" font-size="12.1572px">2019-20</text>
	<rect x="195.947" y="981.1" fill="none" width="11.583" height="57.428"/>
	<text transform="matrix(0 1.1659 -1 0 197.1296 981.1)" font-family="'Roboto-Regular'" font-size="12.1572px">2020-21</text>
	<rect x="217.853" y="981.486" fill="none" width="12.193" height="58.046"/>
	<text transform="matrix(0 1.1659 -1 0 219.6462 981.4857)" font-family="'Roboto-Regular'" font-size="12.1572px">2021-22</text>
	<rect x="240.686" y="980.786" fill="none" width="13.413" height="55.706"/>
	<text transform="matrix(0 1.1659 -1 0 243.699 980.7855)" font-family="'Roboto-Regular'" font-size="12.1572px">2022-23</text>
	<rect x="263.86" y="981.261" fill="none" width="12.193" height="55.231"/>
	<text transform="matrix(0 1.1659 -1 0 265.6531 981.2601)" font-family="'Roboto-Regular'" font-size="12.1572px">2023-24</text>
	<path fill="none" stroke="#000000" stroke-miterlimit="10" d="M265.802,311.692c7.435-0.019,14.706,49.125,15.074,90.647
		c0.416,46.901-7.826,100.706-15.56,100.446c-7.758-0.261-15.308-54.937-14.588-101.671
		C251.35,360.695,258.381,311.711,265.802,311.692z"/>
	<g>
		<path fill="none" stroke="#231F20" stroke-miterlimit="10" d="M210.278,290.148c2.106,31.789,22.748,44.403,32.985,48.734"/>
		<g>
			<path fill="#231F20" d="M248.961,340.857c-3.029,0.042-6.951,0.555-9.646,1.618l3.214-3.905l-0.028-5.056
				C243.92,336.039,246.638,338.913,248.961,340.857z"/>
		</g>
	</g>
	<g>
		<path fill="none" stroke="#231F20" stroke-miterlimit="10" d="M160.137,938.951c-54.057-0.107-76.29-0.01-85.323,0.075"/>
		<g>
			<path fill="#231F20" d="M68.783,939.12c2.828-1.084,6.332-2.92,8.496-4.848l-1.669,4.774l1.771,4.736
				C75.177,941.901,71.634,940.142,68.783,939.12z"/>
		</g>
	</g>
</g>
<style>
#g-cu_tuition-Artboard_13-300-lines-img rect, #g-cu_tuition-Artboard_13-300-lines-img circle, #g-cu_tuition-Artboard_13-300-lines-img path, #g-cu_tuition-Artboard_13-300-lines-img line, #g-cu_tuition-Artboard_13-300-lines-img polyline, #g-cu_tuition-Artboard_13-300-lines-img polygon { vector-effect: non-scaling-stroke; }
</style>
</svg>

