<?xml version="1.0" encoding="utf-8"?>
<!-- Generator: Adobe Illustrator 27.3.1, SVG Export Plug-In . SVG Version: 6.00 Build 0)  -->
<svg version="1.2" baseProfile="tiny" id="g-cu_tuition-Artboard_12-600-lines-img" xmlns="http://www.w3.org/2000/svg" xmlns:xlink="http://www.w3.org/1999/xlink"
	 x="0px" y="0px" viewBox="0 0 600 1099.797" overflow="visible" xml:space="preserve">
<g>
	<rect x="80.496" y="180.516" fill="#EBEBEB" width="463.493" height="769.971"/>
	
		<line fill="none" stroke="#FFFFFF" stroke-width="0.53" stroke-linejoin="round" stroke-miterlimit="10" x1="80.496" y1="931.909" x2="543.989" y2="931.909"/>
	
		<line fill="none" stroke="#FFFFFF" stroke-width="0.53" stroke-linejoin="round" stroke-miterlimit="10" x1="80.496" y1="822.38" x2="543.989" y2="822.38"/>
	
		<line fill="none" stroke="#FFFFFF" stroke-width="0.53" stroke-linejoin="round" stroke-miterlimit="10" x1="80.496" y1="712.835" x2="543.989" y2="712.835"/>
	
		<line fill="none" stroke="#FFFFFF" stroke-width="0.53" stroke-linejoin="round" stroke-miterlimit="10" x1="80.496" y1="603.291" x2="543.989" y2="603.291"/>
	
		<line fill="none" stroke="#FFFFFF" stroke-width="0.53" stroke-linejoin="round" stroke-miterlimit="10" x1="80.496" y1="493.746" x2="543.989" y2="493.746"/>
	
		<line fill="none" stroke="#FFFFFF" stroke-width="0.53" stroke-linejoin="round" stroke-miterlimit="10" x1="80.496" y1="384.202" x2="543.989" y2="384.202"/>
	
		<line fill="none" stroke="#FFFFFF" stroke-width="0.53" stroke-linejoin="round" stroke-miterlimit="10" x1="80.496" y1="274.658" x2="543.989" y2="274.658"/>
	
		<line fill="none" stroke="#FFFFFF" stroke-width="1.07" stroke-linejoin="round" stroke-miterlimit="10" x1="80.496" y1="877.137" x2="543.989" y2="877.137"/>
	
		<line fill="none" stroke="#FFFFFF" stroke-width="1.07" stroke-linejoin="round" stroke-miterlimit="10" x1="80.496" y1="767.607" x2="543.989" y2="767.607"/>
	
		<line fill="none" stroke="#FFFFFF" stroke-width="1.07" stroke-linejoin="round" stroke-miterlimit="10" x1="80.496" y1="658.063" x2="543.989" y2="658.063"/>
	
		<line fill="none" stroke="#FFFFFF" stroke-width="1.07" stroke-linejoin="round" stroke-miterlimit="10" x1="80.496" y1="548.519" x2="543.989" y2="548.519"/>
	
		<line fill="none" stroke="#FFFFFF" stroke-width="1.07" stroke-linejoin="round" stroke-miterlimit="10" x1="80.496" y1="438.974" x2="543.989" y2="438.974"/>
	
		<line fill="none" stroke="#FFFFFF" stroke-width="1.07" stroke-linejoin="round" stroke-miterlimit="10" x1="80.496" y1="329.43" x2="543.989" y2="329.43"/>
	
		<line fill="none" stroke="#FFFFFF" stroke-width="1.07" stroke-linejoin="round" stroke-miterlimit="10" x1="80.496" y1="219.9" x2="543.989" y2="219.9"/>
	
		<line fill="none" stroke="#FFFFFF" stroke-width="1.07" stroke-linejoin="round" stroke-miterlimit="10" x1="105.328" y1="950.487" x2="105.328" y2="180.516"/>
	
		<line fill="none" stroke="#FFFFFF" stroke-width="1.07" stroke-linejoin="round" stroke-miterlimit="10" x1="146.714" y1="950.487" x2="146.714" y2="180.516"/>
	
		<line fill="none" stroke="#FFFFFF" stroke-width="1.07" stroke-linejoin="round" stroke-miterlimit="10" x1="188.092" y1="950.487" x2="188.092" y2="180.516"/>
	
		<line fill="none" stroke="#FFFFFF" stroke-width="1.07" stroke-linejoin="round" stroke-miterlimit="10" x1="229.478" y1="950.487" x2="229.478" y2="180.516"/>
	
		<line fill="none" stroke="#FFFFFF" stroke-width="1.07" stroke-linejoin="round" stroke-miterlimit="10" x1="270.865" y1="950.487" x2="270.865" y2="180.516"/>
	
		<line fill="none" stroke="#FFFFFF" stroke-width="1.07" stroke-linejoin="round" stroke-miterlimit="10" x1="312.243" y1="950.487" x2="312.243" y2="180.516"/>
	
		<line fill="none" stroke="#FFFFFF" stroke-width="1.07" stroke-linejoin="round" stroke-miterlimit="10" x1="353.629" y1="950.487" x2="353.629" y2="180.516"/>
	
		<line fill="none" stroke="#FFFFFF" stroke-width="1.07" stroke-linejoin="round" stroke-miterlimit="10" x1="395.015" y1="950.487" x2="395.015" y2="180.516"/>
	
		<line fill="none" stroke="#FFFFFF" stroke-width="1.07" stroke-linejoin="round" stroke-miterlimit="10" x1="436.393" y1="950.487" x2="436.393" y2="180.516"/>
	
		<line fill="none" stroke="#FFFFFF" stroke-width="1.07" stroke-linejoin="round" stroke-miterlimit="10" x1="477.779" y1="950.487" x2="477.779" y2="180.516"/>
	
		<line fill="none" stroke="#FFFFFF" stroke-width="1.07" stroke-linejoin="round" stroke-miterlimit="10" x1="519.166" y1="950.487" x2="519.166" y2="180.516"/>
	<polyline fill="none" stroke="#8A5D3B" stroke-width="2" stroke-linejoin="round" stroke-miterlimit="10" points="105.328,828.242 
		146.714,780.13 188.092,722.774 229.478,667.573 270.865,604.62 312.243,543.572 353.629,466.663 395.015,406.634 436.393,359.009 
		477.779,310.675 519.166,225.852 	"/>
	<polyline fill="none" stroke="#96C1E8" stroke-width="2" stroke-linejoin="round" stroke-miterlimit="10" points="105.328,743.153 
		146.714,692.235 188.092,639.22 229.478,585.762 270.865,530.429 312.243,473.028 353.629,409.617 395.015,467.091 
		436.393,351.788 477.779,292.63 519.166,215.514 	"/>
	<polyline fill="none" stroke="#D2113C" stroke-width="2" stroke-linejoin="round" stroke-miterlimit="10" points="105.328,788.695 
		146.714,746.475 188.092,706.397 229.478,660.19 270.865,609.139 312.243,548.43 353.629,493.348 395.015,435.43 436.393,385.059 
		477.779,323.124 519.166,229.351 	"/>
	<polyline fill="none" stroke="#00662D" stroke-width="2" stroke-linejoin="round" stroke-miterlimit="10" points="105.328,763.222 
		146.714,724.945 188.092,685.575 229.478,632.338 270.865,589.941 312.243,531.197 353.629,470.133 395.015,406.56 
		436.393,373.053 477.779,322.77 519.166,235.229 	"/>
	<polyline fill="none" stroke="#90278E" stroke-width="2" stroke-linejoin="round" stroke-miterlimit="10" points="105.328,846.318 
		146.714,798.117 188.092,753.165 229.478,701.331 270.865,644.713 312.243,601.534 353.629,557.128 395.015,496.877 
		436.393,449.311 477.779,400.358 519.166,341.48 	"/>
	<polyline fill="none" stroke="#F58426" stroke-width="2" stroke-linejoin="round" stroke-miterlimit="10" points="105.328,915.488 
		146.714,867.509 188.092,819.958 229.478,765.629 270.865,707.357 312.243,640.313 353.629,569.99 395.015,511.054 
		436.393,457.847 477.779,416.188 519.166,349.366 	"/>
	<polyline fill="none" stroke="#004785" stroke-width="2" stroke-linejoin="round" stroke-miterlimit="10" points="105.328,804.231 
		146.714,753.756 188.092,701.612 229.478,647.77 270.865,591.152 312.243,535.066 353.629,475.081 395.015,445.088 
		436.393,365.241 477.779,300.072 519.166,228.657 	"/>
	<polyline fill="none" stroke="#005BFF" stroke-width="2" stroke-linejoin="round" stroke-miterlimit="10" points="105.328,822.38 
		146.714,771.979 188.092,719.407 229.478,665.727 270.865,616.434 312.243,561.012 353.629,502.518 395.015,441.175 
		436.393,378.723 477.779,314.101 519.166,244.429 	"/>
	<rect x="196.567" y="110.03" fill="#F2F2F2" width="26.645" height="22.071"/>
	
		<line fill="none" stroke="#8A5D3B" stroke-width="2" stroke-linejoin="round" stroke-miterlimit="10" x1="199.219" y1="121.066" x2="220.544" y2="121.066"/>
	<rect x="81.913" y="110.03" fill="#F2F2F2" width="26.645" height="22.071"/>
	
		<line fill="none" stroke="#96C1E8" stroke-width="2" stroke-linejoin="round" stroke-miterlimit="10" x1="84.565" y1="121.066" x2="105.89" y2="121.066"/>
	<rect x="288.841" y="110.03" fill="#F2F2F2" width="26.645" height="22.071"/>
	
		<line fill="none" stroke="#00662D" stroke-width="2" stroke-linejoin="round" stroke-miterlimit="10" x1="291.493" y1="121.066" x2="312.818" y2="121.066"/>
	<rect x="414.035" y="110.03" fill="#F2F2F2" width="26.645" height="22.071"/>
	
		<line fill="none" stroke="#B0113C" stroke-width="2" stroke-linejoin="round" stroke-miterlimit="10" x1="416.687" y1="121.066" x2="438.012" y2="121.066"/>
	<rect x="81.647" y="141.03" fill="#F2F2F2" width="26.645" height="22.071"/>
	
		<line fill="none" stroke="#F58426" stroke-width="2" stroke-linejoin="round" stroke-miterlimit="10" x1="84.299" y1="152.066" x2="105.624" y2="152.066"/>
	<rect x="196.311" y="141.03" fill="#F2F2F2" width="26.645" height="22.071"/>
	
		<line fill="none" stroke="#004785" stroke-width="2" stroke-linejoin="round" stroke-miterlimit="10" x1="198.963" y1="152.066" x2="220.288" y2="152.066"/>
	<rect x="288.345" y="141.03" fill="#F2F2F2" width="26.645" height="22.071"/>
	
		<line fill="none" stroke="#005BFF" stroke-width="2" stroke-linejoin="round" stroke-miterlimit="10" x1="290.998" y1="152.066" x2="312.322" y2="152.066"/>
	<rect x="96.593" y="957.435" fill="none" width="18.674" height="79.328"/>
	<text transform="matrix(0 1.1535 -1 0 101.0857 957.4371)" font-family="'Roboto-Regular'" font-size="16.5773px">2013-14</text>
	<rect x="135.54" y="956.072" fill="none" width="19.624" height="70.62"/>
	<text transform="matrix(0 1.1535 -1 0 141.3533 956.0729)" font-family="'Roboto-Regular'" font-size="16.1441px">2014-15</text>
	<rect x="176.883" y="957.723" fill="none" width="18.674" height="75.784"/>
	<text transform="matrix(0 1.1535 -1 0 181.3748 957.7233)" font-family="'Roboto-Regular'" font-size="16.5773px">2015-16</text>
	<rect x="217.865" y="957.515" fill="none" width="18.674" height="74.338"/>
	<text transform="matrix(0 1.1535 -1 0 222.3572 957.5143)" font-family="'Roboto-Regular'" font-size="16.5773px">2016-17</text>
	<rect x="258.305" y="956.866" fill="none" width="18.674" height="76.573"/>
	<text transform="matrix(0 1.1535 -1 0 262.7976 956.8658)" font-family="'Roboto-Regular'" font-size="16.5773px">2017-18</text>
	<rect x="301.939" y="956.391" fill="none" width="18.674" height="76.129"/>
	<text transform="matrix(0 1.1535 -1 0 306.4304 956.3903)" font-family="'Roboto-Regular'" font-size="16.5773px">2018-19</text>
	<rect x="342.818" y="956.605" fill="none" width="18.674" height="75.248"/>
	<text transform="matrix(0 1.1535 -1 0 347.3103 956.6051)" font-family="'Roboto-Regular'" font-size="16.5773px">2019-20</text>
	<rect x="383.898" y="956.157" fill="none" width="18.674" height="73.449"/>
	<text transform="matrix(0 1.1535 -1 0 388.3894 956.1569)" font-family="'Roboto-Regular'" font-size="16.5773px">2020-21</text>
	<rect x="424.802" y="955.362" fill="none" width="18.674" height="79.133"/>
	<text transform="matrix(0 1.1535 -1 0 429.2937 955.3619)" font-family="'Roboto-Regular'" font-size="16.5773px">2021-22</text>
	<rect x="465.531" y="956.393" fill="none" width="18.674" height="72.865"/>
	<text transform="matrix(0 1.1535 -1 0 470.0232 956.3932)" font-family="'Roboto-Regular'" font-size="16.5773px">2022-23</text>
	<rect x="509.175" y="957.004" fill="none" width="18.674" height="74.849"/>
	<text transform="matrix(0 1.1535 -1 0 513.6667 957.0045)" font-family="'Roboto-Regular'" font-size="16.5773px">2023-24</text>
	<rect x="12.916" y="498.256" fill="none" width="22.86" height="148.502"/>
	<text transform="matrix(0 -0.9365 1 0 27.486 615.8171)" font-family="'Roboto-Bold'" font-size="17.0311px">T</text>
	<text transform="matrix(0 -0.9365 1 0 27.486 607.569)" font-family="'Roboto-Bold'" font-size="17.0311px">o</text>
	<text transform="matrix(0 -0.9365 1 0 27.486 598.5505)" font-family="'Roboto-Bold'" font-size="17.0311px">t</text>
	<text transform="matrix(0 -0.9365 1 0 27.486 593.1608)" font-family="'Roboto-Bold'" font-size="17.0311px">a</text>
	<text transform="matrix(0 -0.9365 1 0 27.486 584.6091)" font-family="'Roboto-Bold'" font-size="17.0311px">l</text>
	<text transform="matrix(0 -0.9365 1 0 27.486 580.3796)" font-family="'Roboto-Bold'" font-size="17.0311px"> </text>
	<text transform="matrix(0 -0.9365 1 0 27.486 576.4079)" font-family="'Roboto-Bold'" font-size="17.0311px">B</text>
	<text transform="matrix(0 -0.9365 1 0 27.486 566.2287)" font-family="'Roboto-Bold'" font-size="17.0311px">i</text>
	<text transform="matrix(0 -0.9365 1 0 27.486 561.9997)" font-family="'Roboto-Bold'" font-size="17.0311px">l</text>
	<text transform="matrix(0 -0.9365 1 0 27.486 557.7707)" font-family="'Roboto-Bold'" font-size="17.0311px">l</text>
	<text transform="matrix(0 -0.9365 1 0 27.486 553.5417)" font-family="'Roboto-Bold'" font-size="17.0311px"> </text>
	<text transform="matrix(0 -0.9365 1 0 27.486 549.5695)" font-family="'Roboto-Bold'" font-size="17.0311px">(</text>
	<text transform="matrix(0 -0.9365 1 0 27.486 543.9699)" font-family="'Roboto-Bold'" font-size="17.0311px">$</text>
	<text transform="matrix(0 -0.9365 1 0 27.486 534.8185)" font-family="'Roboto-Bold'" font-size="17.0311px">)</text>
	
		<line fill="none" stroke="#FFFFFF" stroke-width="0.53" stroke-linejoin="round" stroke-miterlimit="10" x1="80.496" y1="931.909" x2="543.989" y2="931.909"/>
	
		<line fill="none" stroke="#333333" stroke-width="1.07" stroke-linejoin="round" stroke-miterlimit="10" x1="78.307" y1="877.137" x2="80.496" y2="877.137"/>
	
		<line fill="none" stroke="#333333" stroke-width="1.07" stroke-linejoin="round" stroke-miterlimit="10" x1="78.307" y1="767.607" x2="80.496" y2="767.607"/>
	
		<line fill="none" stroke="#333333" stroke-width="1.07" stroke-linejoin="round" stroke-miterlimit="10" x1="78.307" y1="658.063" x2="80.496" y2="658.063"/>
	
		<line fill="none" stroke="#333333" stroke-width="1.07" stroke-linejoin="round" stroke-miterlimit="10" x1="78.307" y1="548.519" x2="80.496" y2="548.519"/>
	
		<line fill="none" stroke="#333333" stroke-width="1.07" stroke-linejoin="round" stroke-miterlimit="10" x1="78.307" y1="438.974" x2="80.496" y2="438.974"/>
	
		<line fill="none" stroke="#333333" stroke-width="1.07" stroke-linejoin="round" stroke-miterlimit="10" x1="78.307" y1="329.43" x2="80.496" y2="329.43"/>
	
		<line fill="none" stroke="#333333" stroke-width="1.07" stroke-linejoin="round" stroke-miterlimit="10" x1="78.307" y1="219.9" x2="80.496" y2="219.9"/>
	
		<line fill="none" stroke="#333333" stroke-width="1.07" stroke-linejoin="round" stroke-miterlimit="10" x1="105.328" y1="954.533" x2="105.328" y2="950.487"/>
	
		<line fill="none" stroke="#333333" stroke-width="1.07" stroke-linejoin="round" stroke-miterlimit="10" x1="146.714" y1="954.533" x2="146.714" y2="950.487"/>
	
		<line fill="none" stroke="#333333" stroke-width="1.07" stroke-linejoin="round" stroke-miterlimit="10" x1="229.478" y1="954.533" x2="229.478" y2="950.487"/>
	
		<line fill="none" stroke="#333333" stroke-width="1.07" stroke-linejoin="round" stroke-miterlimit="10" x1="270.865" y1="954.533" x2="270.865" y2="950.487"/>
	
		<line fill="none" stroke="#333333" stroke-width="1.07" stroke-linejoin="round" stroke-miterlimit="10" x1="312.243" y1="954.533" x2="312.243" y2="950.487"/>
	
		<line fill="none" stroke="#333333" stroke-width="1.07" stroke-linejoin="round" stroke-miterlimit="10" x1="353.629" y1="954.533" x2="353.629" y2="950.487"/>
	
		<line fill="none" stroke="#333333" stroke-width="1.07" stroke-linejoin="round" stroke-miterlimit="10" x1="395.015" y1="954.533" x2="395.015" y2="950.487"/>
	
		<line fill="none" stroke="#333333" stroke-width="1.07" stroke-linejoin="round" stroke-miterlimit="10" x1="436.393" y1="954.533" x2="436.393" y2="950.487"/>
	
		<line fill="none" stroke="#333333" stroke-width="1.07" stroke-linejoin="round" stroke-miterlimit="10" x1="477.779" y1="954.533" x2="477.779" y2="950.487"/>
	
		<line fill="none" stroke="#333333" stroke-width="1.07" stroke-linejoin="round" stroke-miterlimit="10" x1="519.166" y1="954.533" x2="519.166" y2="950.487"/>
	
		<line fill="none" stroke="#333333" stroke-width="1.07" stroke-linejoin="round" stroke-miterlimit="10" x1="187.978" y1="954.548" x2="187.978" y2="950.502"/>
	<path fill="none" stroke="#000000" stroke-miterlimit="10" d="M511.818,207.494c13.09-0.017,25.89,43.39,26.538,80.064
		c0.733,41.426-13.778,88.95-27.394,88.72c-13.659-0.231-26.949-48.524-25.682-89.802
		C486.375,250.777,498.754,207.511,511.818,207.494z"/>
	<g>
		<path fill="none" stroke="#231F20" stroke-miterlimit="10" d="M420.189,214.145c34.747-27.588,55.939-9.5,63.778,0.149"/>
		<g>
			<path fill="#231F20" d="M487.424,219.24c-2.505-1.702-6.013-3.53-8.831-4.205l4.872-1.357l2.876-4.159
				C486.056,212.403,486.634,216.316,487.424,219.24z"/>
		</g>
	</g>
	<g>
		<path fill="none" stroke="#231F20" stroke-miterlimit="10" d="M321.186,906.386c-117.726-0.247-157.11,0.037-169.977,0.218"/>
		<g>
			<path fill="#231F20" d="M145.179,906.731c2.828-1.086,6.33-2.924,8.492-4.853l-1.666,4.775l1.775,4.735
				C151.575,909.509,148.031,907.751,145.179,906.731z"/>
		</g>
	</g>
</g>
<style>
#g-cu_tuition-Artboard_12-600-lines-img rect, #g-cu_tuition-Artboard_12-600-lines-img circle, #g-cu_tuition-Artboard_12-600-lines-img path, #g-cu_tuition-Artboard_12-600-lines-img line, #g-cu_tuition-Artboard_12-600-lines-img polyline, #g-cu_tuition-Artboard_12-600-lines-img polygon { vector-effect: non-scaling-stroke; }
</style>
</svg>

