<?xml version="1.0" encoding="utf-8"?>
<!-- Generator: Adobe Illustrator 27.3.1, SVG Export Plug-In . SVG Version: 6.00 Build 0)  -->
<svg version="1.2" baseProfile="tiny" id="g-cu_tuition-Artboard_12-1200-lines-img" xmlns="http://www.w3.org/2000/svg" xmlns:xlink="http://www.w3.org/1999/xlink"
	 x="0px" y="0px" viewBox="0 0 1200 940" overflow="visible" xml:space="preserve">
<g>
	<rect x="89.72" y="153.723" fill="#EBEBEB" width="936.963" height="683.088"/>
	
		<line fill="none" stroke="#FFFFFF" stroke-width="0.53" stroke-linejoin="round" stroke-miterlimit="10" x1="89.72" y1="820.33" x2="1026.683" y2="820.33"/>
	
		<line fill="none" stroke="#FFFFFF" stroke-width="0.53" stroke-linejoin="round" stroke-miterlimit="10" x1="89.72" y1="723.159" x2="1026.683" y2="723.159"/>
	
		<line fill="none" stroke="#FFFFFF" stroke-width="0.53" stroke-linejoin="round" stroke-miterlimit="10" x1="89.72" y1="625.976" x2="1026.683" y2="625.976"/>
	
		<line fill="none" stroke="#FFFFFF" stroke-width="0.53" stroke-linejoin="round" stroke-miterlimit="10" x1="89.72" y1="528.793" x2="1026.683" y2="528.793"/>
	
		<line fill="none" stroke="#FFFFFF" stroke-width="0.53" stroke-linejoin="round" stroke-miterlimit="10" x1="89.72" y1="431.609" x2="1026.683" y2="431.609"/>
	
		<line fill="none" stroke="#FFFFFF" stroke-width="0.53" stroke-linejoin="round" stroke-miterlimit="10" x1="89.72" y1="334.426" x2="1026.683" y2="334.426"/>
	
		<line fill="none" stroke="#FFFFFF" stroke-width="0.53" stroke-linejoin="round" stroke-miterlimit="10" x1="89.72" y1="237.242" x2="1026.683" y2="237.242"/>
	
		<line fill="none" stroke="#FFFFFF" stroke-width="1.07" stroke-linejoin="round" stroke-miterlimit="10" x1="89.72" y1="771.738" x2="1026.683" y2="771.738"/>
	
		<line fill="none" stroke="#FFFFFF" stroke-width="1.07" stroke-linejoin="round" stroke-miterlimit="10" x1="89.72" y1="674.568" x2="1026.683" y2="674.568"/>
	
		<line fill="none" stroke="#FFFFFF" stroke-width="1.07" stroke-linejoin="round" stroke-miterlimit="10" x1="89.72" y1="577.384" x2="1026.683" y2="577.384"/>
	
		<line fill="none" stroke="#FFFFFF" stroke-width="1.07" stroke-linejoin="round" stroke-miterlimit="10" x1="89.72" y1="480.201" x2="1026.683" y2="480.201"/>
	
		<line fill="none" stroke="#FFFFFF" stroke-width="1.07" stroke-linejoin="round" stroke-miterlimit="10" x1="89.72" y1="383.017" x2="1026.683" y2="383.017"/>
	
		<line fill="none" stroke="#FFFFFF" stroke-width="1.07" stroke-linejoin="round" stroke-miterlimit="10" x1="89.72" y1="285.834" x2="1026.683" y2="285.834"/>
	
		<line fill="none" stroke="#FFFFFF" stroke-width="1.07" stroke-linejoin="round" stroke-miterlimit="10" x1="89.72" y1="188.663" x2="1026.683" y2="188.663"/>
	
		<line fill="none" stroke="#FFFFFF" stroke-width="1.07" stroke-linejoin="round" stroke-miterlimit="10" x1="139.918" y1="836.811" x2="139.918" y2="153.723"/>
	
		<line fill="none" stroke="#FFFFFF" stroke-width="1.07" stroke-linejoin="round" stroke-miterlimit="10" x1="223.581" y1="836.811" x2="223.581" y2="153.723"/>
	
		<line fill="none" stroke="#FFFFFF" stroke-width="1.07" stroke-linejoin="round" stroke-miterlimit="10" x1="307.228" y1="836.811" x2="307.228" y2="153.723"/>
	
		<line fill="none" stroke="#FFFFFF" stroke-width="1.07" stroke-linejoin="round" stroke-miterlimit="10" x1="390.892" y1="836.811" x2="390.892" y2="153.723"/>
	
		<line fill="none" stroke="#FFFFFF" stroke-width="1.07" stroke-linejoin="round" stroke-miterlimit="10" x1="474.555" y1="836.811" x2="474.555" y2="153.723"/>
	
		<line fill="none" stroke="#FFFFFF" stroke-width="1.07" stroke-linejoin="round" stroke-miterlimit="10" x1="558.202" y1="836.811" x2="558.202" y2="153.723"/>
	
		<line fill="none" stroke="#FFFFFF" stroke-width="1.07" stroke-linejoin="round" stroke-miterlimit="10" x1="641.865" y1="836.811" x2="641.865" y2="153.723"/>
	
		<line fill="none" stroke="#FFFFFF" stroke-width="1.07" stroke-linejoin="round" stroke-miterlimit="10" x1="725.528" y1="836.811" x2="725.528" y2="153.723"/>
	
		<line fill="none" stroke="#FFFFFF" stroke-width="1.07" stroke-linejoin="round" stroke-miterlimit="10" x1="809.175" y1="836.811" x2="809.175" y2="153.723"/>
	
		<line fill="none" stroke="#FFFFFF" stroke-width="1.07" stroke-linejoin="round" stroke-miterlimit="10" x1="892.838" y1="836.811" x2="892.838" y2="153.723"/>
	
		<line fill="none" stroke="#FFFFFF" stroke-width="1.07" stroke-linejoin="round" stroke-miterlimit="10" x1="976.501" y1="836.811" x2="976.501" y2="153.723"/>
	<polyline fill="none" stroke="#8A5D3B" stroke-width="2" stroke-linejoin="round" stroke-miterlimit="10" points="139.918,728.361 
		223.581,685.677 307.228,634.793 390.892,585.821 474.555,529.972 558.202,475.812 641.865,407.582 725.528,354.326 
		809.175,312.075 892.838,269.195 976.501,193.943 	"/>
	<polyline fill="none" stroke="#96C1E8" stroke-width="2" stroke-linejoin="round" stroke-miterlimit="10" points="139.918,652.872 
		223.581,607.7 307.228,560.667 390.892,513.242 474.555,464.152 558.202,413.228 641.865,356.972 725.528,407.962 809.175,305.669 
		892.838,253.186 976.501,184.772 	"/>
	<polyline fill="none" stroke="#D2113C" stroke-width="2" stroke-linejoin="round" stroke-miterlimit="10" points="139.918,693.276 
		223.581,655.82 307.228,620.264 390.892,579.271 474.555,533.981 558.202,480.122 641.865,431.255 725.528,379.873 
		809.175,335.185 892.838,280.24 976.501,197.048 	"/>
	<polyline fill="none" stroke="#00662D" stroke-width="2" stroke-linejoin="round" stroke-miterlimit="10" points="139.918,670.677 
		223.581,636.719 307.228,601.792 390.892,554.562 474.555,516.949 558.202,464.833 641.865,410.66 725.528,354.261 
		809.175,324.534 892.838,279.925 976.501,202.262 	"/>
	<polyline fill="none" stroke="#90278E" stroke-width="2" stroke-linejoin="round" stroke-miterlimit="10" points="139.918,744.396 
		223.581,701.634 307.228,661.755 390.892,615.77 474.555,565.541 558.202,527.234 641.865,487.839 725.528,434.386 
		809.175,392.188 892.838,348.758 976.501,296.524 	"/>
	<polyline fill="none" stroke="#F58426" stroke-width="2" stroke-linejoin="round" stroke-miterlimit="10" points="139.918,805.761 
		223.581,763.196 307.228,721.011 390.892,672.812 474.555,621.116 558.202,561.637 641.865,499.25 725.528,446.963 809.175,399.76 
		892.838,362.802 976.501,303.52 	"/>
	<polyline fill="none" stroke="#004785" stroke-width="2" stroke-linejoin="round" stroke-miterlimit="10" points="139.918,707.058 
		223.581,662.279 307.228,616.019 390.892,568.253 474.555,518.023 558.202,468.266 641.865,415.049 725.528,388.441 
		809.175,317.604 892.838,259.789 976.501,196.432 	"/>
	<polyline fill="none" stroke="#005BFF" stroke-width="2" stroke-linejoin="round" stroke-miterlimit="10" points="139.918,723.159 
		223.581,678.446 307.228,631.806 390.892,584.184 474.555,540.452 558.202,491.284 641.865,439.391 725.528,384.969 
		809.175,329.565 892.838,272.235 976.501,210.424 	"/>
	<rect x="1048.696" y="152.724" fill="#F2F2F2" width="28.306" height="22.513"/>
	
		<line fill="none" stroke="#8A5D3B" stroke-width="2" stroke-linejoin="round" stroke-miterlimit="10" x1="1051.514" y1="163.981" x2="1074.168" y2="163.981"/>
	<rect x="1048.696" y="175.238" fill="#F2F2F2" width="28.306" height="22.513"/>
	
		<line fill="none" stroke="#96C1E8" stroke-width="2" stroke-linejoin="round" stroke-miterlimit="10" x1="1051.514" y1="186.494" x2="1074.168" y2="186.494"/>
	<rect x="1048.696" y="197.751" fill="#F2F2F2" width="28.306" height="22.513"/>
	
		<line fill="none" stroke="#00662D" stroke-width="2" stroke-linejoin="round" stroke-miterlimit="10" x1="1051.514" y1="209.008" x2="1074.168" y2="209.008"/>
	<rect x="1048.696" y="220.264" fill="#F2F2F2" width="28.306" height="22.513"/>
	
		<line fill="none" stroke="#90278E" stroke-width="2" stroke-linejoin="round" stroke-miterlimit="10" x1="1051.514" y1="231.521" x2="1074.168" y2="231.521"/>
	<rect x="1048.696" y="242.778" fill="#F2F2F2" width="28.306" height="22.513"/>
	
		<line fill="none" stroke="#F58426" stroke-width="2" stroke-linejoin="round" stroke-miterlimit="10" x1="1051.514" y1="254.034" x2="1074.168" y2="254.034"/>
	<rect x="1048.696" y="265.291" fill="#F2F2F2" width="28.306" height="22.513"/>
	
		<line fill="none" stroke="#004785" stroke-width="2" stroke-linejoin="round" stroke-miterlimit="10" x1="1051.514" y1="276.548" x2="1074.168" y2="276.548"/>
	<rect x="1048.696" y="287.804" fill="#F2F2F2" width="28.306" height="22.513"/>
	
		<line fill="none" stroke="#005BFF" stroke-width="2" stroke-linejoin="round" stroke-miterlimit="10" x1="1051.514" y1="299.061" x2="1074.168" y2="299.061"/>
	
		<line fill="none" stroke="#FFFFFF" stroke-width="0.53" stroke-linejoin="round" stroke-miterlimit="10" x1="89.721" y1="820.33" x2="1026.683" y2="820.33"/>
	
		<line fill="none" stroke="#333333" stroke-width="1.07" stroke-linejoin="round" stroke-miterlimit="10" x1="85.295" y1="771.738" x2="89.721" y2="771.738"/>
	
		<line fill="none" stroke="#333333" stroke-width="1.07" stroke-linejoin="round" stroke-miterlimit="10" x1="85.295" y1="674.568" x2="89.721" y2="674.568"/>
	
		<line fill="none" stroke="#333333" stroke-width="1.07" stroke-linejoin="round" stroke-miterlimit="10" x1="85.295" y1="577.384" x2="89.721" y2="577.384"/>
	
		<line fill="none" stroke="#333333" stroke-width="1.07" stroke-linejoin="round" stroke-miterlimit="10" x1="85.295" y1="480.201" x2="89.721" y2="480.201"/>
	
		<line fill="none" stroke="#333333" stroke-width="1.07" stroke-linejoin="round" stroke-miterlimit="10" x1="85.295" y1="383.017" x2="89.721" y2="383.017"/>
	
		<line fill="none" stroke="#333333" stroke-width="1.07" stroke-linejoin="round" stroke-miterlimit="10" x1="85.295" y1="285.834" x2="89.721" y2="285.834"/>
	
		<line fill="none" stroke="#333333" stroke-width="1.07" stroke-linejoin="round" stroke-miterlimit="10" x1="85.295" y1="188.663" x2="89.721" y2="188.663"/>
	
		<line fill="none" stroke="#333333" stroke-width="1.07" stroke-linejoin="round" stroke-miterlimit="10" x1="139.918" y1="840.401" x2="139.918" y2="836.811"/>
	
		<line fill="none" stroke="#333333" stroke-width="1.07" stroke-linejoin="round" stroke-miterlimit="10" x1="223.582" y1="840.401" x2="223.582" y2="836.811"/>
	<line fill="none" x1="307.228" y1="840.401" x2="307.228" y2="836.811"/>
	
		<line fill="none" stroke="#333333" stroke-width="1.07" stroke-linejoin="round" stroke-miterlimit="10" x1="390.892" y1="840.401" x2="390.892" y2="836.811"/>
	
		<line fill="none" stroke="#333333" stroke-width="1.07" stroke-linejoin="round" stroke-miterlimit="10" x1="474.555" y1="840.401" x2="474.555" y2="836.811"/>
	
		<line fill="none" stroke="#333333" stroke-width="1.07" stroke-linejoin="round" stroke-miterlimit="10" x1="558.202" y1="840.401" x2="558.202" y2="836.811"/>
	
		<line fill="none" stroke="#333333" stroke-width="1.07" stroke-linejoin="round" stroke-miterlimit="10" x1="641.865" y1="840.401" x2="641.865" y2="836.811"/>
	
		<line fill="none" stroke="#333333" stroke-width="1.07" stroke-linejoin="round" stroke-miterlimit="10" x1="725.528" y1="840.401" x2="725.528" y2="836.811"/>
	
		<line fill="none" stroke="#333333" stroke-width="1.07" stroke-linejoin="round" stroke-miterlimit="10" x1="809.175" y1="840.401" x2="809.175" y2="836.811"/>
	
		<line fill="none" stroke="#333333" stroke-width="1.07" stroke-linejoin="round" stroke-miterlimit="10" x1="892.838" y1="840.401" x2="892.838" y2="836.811"/>
	
		<line fill="none" stroke="#333333" stroke-width="1.07" stroke-linejoin="round" stroke-miterlimit="10" x1="976.501" y1="840.401" x2="976.501" y2="836.811"/>
	
		<line fill="none" stroke="#333333" stroke-width="1.07" stroke-linejoin="round" stroke-miterlimit="10" x1="306.997" y1="840.414" x2="306.997" y2="836.824"/>
	<rect x="1049.052" y="310.148" fill="#F2F2F2" width="28.306" height="22.513"/>
	
		<line fill="none" stroke="#D2113C" stroke-width="2" stroke-linejoin="round" stroke-miterlimit="10" x1="1050.862" y1="321.404" x2="1073.516" y2="321.404"/>
	<path fill="none" stroke="#000000" stroke-miterlimit="10" d="M967.173,171.706c16.544-0.017,32.721,43.39,33.541,80.064
		c0.926,41.426-17.414,88.95-34.622,88.72c-17.263-0.231-34.06-48.524-32.459-89.802
		C935.018,214.989,950.662,171.723,967.173,171.706z"/>
	<g>
		<path fill="none" stroke="#231F20" stroke-miterlimit="10" d="M844.394,191.806c43.999-29.482,74.158-12.594,85.033-4.035"/>
		<g>
			<path fill="#231F20" d="M933.913,191.806c-2.827-1.088-6.659-2.071-9.556-2.087l4.436-2.429l1.855-4.704
				C931.026,185.459,932.48,189.138,933.913,191.806z"/>
		</g>
	</g>
	<g>
		<path d="M150.259,520.466c0,99.791,0,99.791,0,99.791"/>
		<g>
			<path fill="none" stroke="#231F20" stroke-miterlimit="10" d="M150.259,520.466c0,60.631,0,84.424,0,93.761"/>
			<g>
				<path fill="#231F20" d="M150.259,620.257c-1.054-2.84-2.852-6.363-4.756-8.547l4.756,1.72l4.755-1.72
					C153.109,613.894,151.312,617.418,150.259,620.257z"/>
			</g>
		</g>
	</g>
</g>
<style>
#g-cu_tuition-Artboard_12-1200-lines-img rect, #g-cu_tuition-Artboard_12-1200-lines-img circle, #g-cu_tuition-Artboard_12-1200-lines-img path, #g-cu_tuition-Artboard_12-1200-lines-img line, #g-cu_tuition-Artboard_12-1200-lines-img polyline, #g-cu_tuition-Artboard_12-1200-lines-img polygon { vector-effect: non-scaling-stroke; }
</style>
</svg>

